<svg width="21" height="20" viewBox="0 0 21 20" fill="none" xmlns="http://www.w3.org/2000/svg">
<path d="M15.5 6V6C15.5 3.23858 13.2614 1 10.5 1V1C7.73858 1 5.5 3.23858 5.5 6V6M8.3691 19H12.6309C14.1962 19 14.9788 19 15.6422 18.7898C16.7527 18.4379 17.6836 17.669 18.2389 16.6449C18.5705 16.0332 18.7183 15.2646 19.0139 13.7275V13.7275C19.431 11.5585 19.6396 10.4741 19.4613 9.60027C19.1619 8.13321 18.1525 6.91114 16.7684 6.34011C15.944 6 14.8396 6 12.6309 6H8.3691C6.16039 6 5.05604 6 4.23164 6.34011C2.84752 6.91114 1.83807 8.13321 1.5387 9.60027C1.3604 10.4741 1.56895 11.5585 1.98606 13.7275V13.7275C2.28166 15.2646 2.42945 16.0332 2.76114 16.6449C3.31643 17.669 4.24725 18.4379 5.35783 18.7898C6.0212 19 6.80383 19 8.3691 19Z" stroke="black" stroke-width="1.5" stroke-linecap="round" stroke-linejoin="round"/>
</svg>
