<svg width="18" height="19" viewBox="0 0 18 19" fill="none" xmlns="http://www.w3.org/2000/svg">
<path d="M3.75 5L3.75 11C3.75 11.2321 3.75 11.3482 3.75385 11.4463C3.85629 14.0536 5.94643 16.1437 8.5537 16.2461C8.65181 16.25 8.76788 16.25 9 16.25V16.25C9.23212 16.25 9.34819 16.25 9.4463 16.2461C12.0536 16.1437 14.1437 14.0536 14.2461 11.4463C14.25 11.3482 14.25 11.2321 14.25 11L14.25 5M3.75 5H2.25M3.75 5L6.75 5M14.25 5H15.75M14.25 5L11.25 5M6.75 5V5C6.75 4.76783 6.75 4.65175 6.75963 4.55397C6.85315 3.60441 7.60441 2.85315 8.55397 2.75963C8.65175 2.75 8.76783 2.75 9 2.75V2.75C9.23217 2.75 9.34825 2.75 9.44603 2.75963C10.3956 2.85315 11.1468 3.60441 11.2404 4.55397C11.25 4.65175 11.25 4.76783 11.25 5V5M6.75 5L11.25 5M7.125 7.625L7.125 12.875M10.875 7.625V12.875" stroke="#DF2323" stroke-width="1.5" stroke-linecap="round" stroke-linejoin="round"/>
</svg>
