<svg width="151" height="50" viewBox="0 0 151 50" fill="none" xmlns="http://www.w3.org/2000/svg">
<path d="M65.4166 16.6667V16.6667C65.4166 10.9137 60.7529 6.25 55 6.25V6.25C49.247 6.25 44.5833 10.9137 44.5833 16.6667V16.6667M50.5606 43.75H59.4393C61.2296 43.75 62.1247 43.75 62.9093 43.6389C67.0978 43.0459 70.5997 40.1534 71.973 36.1521C72.2302 35.4027 72.3993 34.5237 72.7373 32.7656V32.7656C73.214 30.2872 73.4523 29.0479 73.4631 28.0365C73.5215 22.5524 69.6169 17.8254 64.2205 16.8471C63.2252 16.6667 61.9632 16.6667 59.4393 16.6667H50.5606C48.0367 16.6667 46.7747 16.6667 45.7795 16.8471C40.383 17.8254 36.4785 22.5524 36.5369 28.0365C36.5476 29.0479 36.786 30.2872 37.2626 32.7656V32.7656C37.6007 34.5237 37.7697 35.4027 38.0269 36.1521C39.4003 40.1534 42.9021 43.0459 47.0907 43.6389C47.8752 43.75 48.7704 43.75 50.5606 43.75Z" stroke="white" stroke-width="5" stroke-linecap="round" stroke-linejoin="round"/>
<path d="M28.2854 1.43V5.87H10.1054V19.97H24.8654V24.41H10.1054V43.25H4.64539V1.43H28.2854ZM96.9081 43.79C94.388 43.79 92.128 43.37 90.128 42.53C88.128 41.65 86.548 40.45 85.388 38.93C84.228 37.37 83.588 35.59 83.468 33.59H89.108C89.268 35.23 90.028 36.57 91.388 37.61C92.788 38.65 94.608 39.17 96.848 39.17C98.928 39.17 100.568 38.71 101.768 37.79C102.968 36.87 103.568 35.71 103.568 34.31C103.568 32.87 102.928 31.81 101.648 31.13C100.368 30.41 98.388 29.71 95.708 29.03C93.268 28.39 91.268 27.75 89.708 27.11C88.188 26.43 86.868 25.45 85.748 24.17C84.668 22.85 84.128 21.13 84.128 19.01C84.128 17.33 84.628 15.79 85.628 14.39C86.628 12.99 88.048 11.89 89.888 11.09C91.728 10.25 93.828 9.83 96.188 9.83C99.828 9.83 102.768 10.75 105.008 12.59C107.248 14.43 108.448 16.95 108.608 20.15H103.148C103.028 18.43 102.328 17.05 101.048 16.01C99.808 14.97 98.128 14.45 96.008 14.45C94.048 14.45 92.488 14.87 91.328 15.71C90.168 16.55 89.588 17.65 89.588 19.01C89.588 20.09 89.928 20.99 90.608 21.71C91.328 22.39 92.208 22.95 93.248 23.39C94.328 23.79 95.808 24.25 97.688 24.77C100.048 25.41 101.968 26.05 103.448 26.69C104.928 27.29 106.188 28.21 107.228 29.45C108.308 30.69 108.868 32.31 108.908 34.31C108.908 36.11 108.408 37.73 107.408 39.17C106.408 40.61 104.988 41.75 103.148 42.59C101.348 43.39 99.268 43.79 96.9081 43.79ZM133.236 9.77C137.236 9.77 140.476 10.99 142.956 13.43C145.436 15.83 146.676 19.31 146.676 23.87V43.25H141.276V24.65C141.276 21.37 140.456 18.87 138.816 17.15C137.176 15.39 134.936 14.51 132.096 14.51C129.216 14.51 126.916 15.41 125.196 17.21C123.516 19.01 122.676 21.63 122.676 25.07V43.25H117.216V10.37H122.676V15.05C123.756 13.37 125.216 12.07 127.056 11.15C128.936 10.23 130.996 9.77 133.236 9.77Z" fill="white"/>
</svg>
