<svg width="22" height="22" viewBox="0 0 22 22" fill="none" xmlns="http://www.w3.org/2000/svg">
<path d="M9.16669 5.5L9.1665 4.5837C9.1663 3.57103 9.98717 2.75 10.9998 2.75V2.75C12.0122 2.75 12.833 3.57059 12.8332 4.58297L12.8334 5.5M12.8328 16.9583H15.9806C17.4411 16.9583 18.2264 15.2425 17.2717 14.1372L16.6188 13.3813C15.8112 12.4463 15.4235 11.2204 15.5465 9.99096V9.99096C15.8116 7.34111 13.7308 5.04167 11.0677 5.04167H10.9325C8.26926 5.04167 6.18817 7.34112 6.45302 9.9912V9.9912C6.57588 11.2205 6.18816 12.4462 5.38073 13.3812L4.7281 14.137C3.77343 15.2425 4.55879 16.9583 6.01946 16.9583H9.16614M12.8328 16.9583V17.4167C12.8328 18.4292 12.012 19.25 10.9995 19.25V19.25C9.98695 19.25 9.16614 18.4292 9.16614 17.4167V16.9583M12.8328 16.9583H9.16614" stroke="white" stroke-width="1.5" stroke-linejoin="round"/>
</svg>
